<svg width="24" height="24" viewBox="0 0 24 24" fill="none" xmlns="http://www.w3.org/2000/svg">
<path d="M11.9998 0.199997C18.5167 0.199997 23.7995 5.48293 23.7996 11.9998C23.7996 18.5168 18.5168 23.7996 11.9998 23.7996C5.48295 23.7995 0.200012 18.5167 0.200012 11.9998C0.200118 5.483 5.48301 0.200102 11.9998 0.199997ZM11.9998 1.79961C6.36667 1.79971 1.79973 6.36665 1.79962 11.9998C1.79962 17.633 6.3666 22.1999 11.9998 22.2C17.6331 22.2 22.2 17.6331 22.2 11.9998C22.1999 6.36659 17.6331 1.79961 11.9998 1.79961ZM6.99982 10.7498C7.69011 10.7498 8.24971 11.3095 8.24982 11.9998C8.24982 12.6902 7.69017 13.2498 6.99982 13.2498C6.30957 13.2497 5.74982 12.6901 5.74982 11.9998C5.74992 11.3096 6.30964 10.7499 6.99982 10.7498ZM11.9998 10.7498C12.6901 10.7498 13.2497 11.3095 13.2498 11.9998C13.2498 12.6902 12.6902 13.2498 11.9998 13.2498C11.3096 13.2497 10.7498 12.6901 10.7498 11.9998C10.7499 11.3096 11.3096 10.7499 11.9998 10.7498ZM16.9998 10.7498C17.6901 10.7498 18.2497 11.3095 18.2498 11.9998C18.2498 12.6902 17.6902 13.2498 16.9998 13.2498C16.3096 13.2497 15.7498 12.6901 15.7498 11.9998C15.7499 11.3096 16.3096 10.7499 16.9998 10.7498Z" fill="#007AFF"/>
</svg>
