<svg width="18" height="13" viewBox="0 0 18 13" fill="none" xmlns="http://www.w3.org/2000/svg">
<path d="M9.27131 2.62061C11.7584 2.62071 14.1504 3.52572 15.9529 5.14858C16.0887 5.27387 16.3056 5.27229 16.4393 5.14504L17.7368 3.90497C17.8045 3.84042 17.8422 3.753 17.8417 3.66203C17.8411 3.57107 17.8023 3.48407 17.7338 3.42028C13.0028 -0.873425 5.53909 -0.873425 0.808083 3.42028C0.739551 3.48402 0.700659 3.57099 0.70002 3.66196C0.699396 3.75292 0.737055 3.84038 0.804695 3.90497L2.10258 5.14504C2.23617 5.27248 2.45328 5.27407 2.58894 5.14858C4.39168 3.52562 6.78395 2.6206 9.27131 2.62061ZM9.26954 6.76273C10.6269 6.76265 11.9357 7.26491 12.9418 8.17193C13.0779 8.30065 13.2923 8.29786 13.425 8.16564L14.7122 6.87076C14.78 6.80284 14.8176 6.7107 14.8167 6.61496C14.8157 6.51921 14.7762 6.42785 14.707 6.36132C11.6432 3.52401 6.89847 3.52401 3.83463 6.36132C3.76543 6.42785 3.72594 6.51926 3.72501 6.61503C3.72412 6.71081 3.76188 6.80294 3.82981 6.87076L5.11671 8.16564C5.24936 8.29786 5.46372 8.30065 5.5998 8.17193C6.60525 7.26551 7.91312 6.76329 9.26954 6.76273ZM11.6892 9.78008C11.7565 9.70763 11.7935 9.60795 11.7916 9.50455C11.7897 9.40115 11.7489 9.3032 11.679 9.23384C10.2889 7.94428 8.25299 7.94428 6.86289 9.23384C6.79291 9.30315 6.75209 9.40106 6.7501 9.50446C6.74811 9.60786 6.78508 9.70758 6.85233 9.78008L9.02937 12.1893C9.09317 12.2602 9.18017 12.3 9.27094 12.3C9.36171 12.3 9.44871 12.2602 9.51252 12.1893L11.6892 9.78008Z" fill="white"/>
</svg>
